<?xml version="1.0" encoding="iso-8859-1"?>
<!-- Generator: Adobe Illustrator 19.0.0, SVG Export Plug-In . SVG Version: 6.00 Build 0)  -->
<svg version="1.1" id="Capa_1" xmlns="http://www.w3.org/2000/svg" xmlns:xlink="http://www.w3.org/1999/xlink" x="0px" y="0px"
	 viewBox="0 0 512 512" style="enable-background:new 0 0 512 512;" xml:space="preserve">
<path style="fill:#E3E3E3;" d="M256,21.047C114.618,21.047,0,126.238,0,256s114.618,234.953,256,234.953S512,385.762,512,256
	S397.382,21.047,256,21.047z M256,441.69c-117.121,0-212.073-83.136-212.073-185.69S138.879,70.31,256,70.31
	S468.073,153.445,468.073,256S373.121,441.69,256,441.69z"/>
<g>
	<path style="fill:#CCCCCC;" d="M256,21.047c-5.19,0-10.339,0.159-15.453,0.438C374.732,28.82,481.095,131.002,481.095,256
		S374.732,483.18,240.547,490.516c5.114,0.279,10.263,0.438,15.453,0.438c141.382,0,256-105.192,256-234.953
		S397.382,21.047,256,21.047z"/>
	<path style="fill:#CCCCCC;" d="M240.547,70.803c-5.104-0.322-10.255-0.493-15.453-0.493C107.973,70.31,13.021,153.445,13.021,256
		s94.952,185.69,212.073,185.69c5.197,0,10.349-0.172,15.453-0.493C130.64,434.266,43.927,354.003,43.927,256
		S130.64,77.734,240.547,70.803z"/>
	<path style="fill:#CCCCCC;" d="M344.044,194.873H215.352c-46.25,0-88.204,27.117-107.195,69.288L60.368,370.274
		c-3.943,8.753,2.46,18.658,12.06,18.658h62.092c5.229,0,9.968-3.081,12.089-7.861l49.841-112.309
		c10.429-23.498,33.723-38.646,59.432-38.646h76.716c1.165,0,2.21-0.716,2.629-1.803l11.446-29.602
		C347.388,196.861,346.025,194.873,344.044,194.873z"/>
</g>
<g>
	<path style="fill:#8C8C8C;" d="M161.782,268.761L111.941,381.07c-2.121,4.78-6.86,7.861-12.089,7.861h34.669
		c5.229,0,9.968-3.081,12.089-7.861l49.841-112.309c10.429-23.499,33.723-38.647,59.432-38.647h-34.669
		C195.506,230.114,172.21,245.261,161.782,268.761z"/>
	<path style="fill:#8C8C8C;" d="M344.044,194.873h-48.937c1.981,0,3.344,1.988,2.629,3.836l-11.446,29.602
		c-0.42,1.086-1.465,1.803-2.629,1.803h48.937c1.165,0,2.21-0.716,2.629-1.803l11.446-29.602
		C347.388,196.861,346.025,194.873,344.044,194.873z"/>
</g>
<path style="fill:#CCCCCC;" d="M366.895,145.795l-68.067,172.846c-4.644,11.792-16.028,19.544-28.701,19.544H175.62
	c-10.306,0-19.765,5.703-24.575,14.817l-6.304,11.944c-1.695,3.21,0.634,7.07,4.263,7.07h133.754
	c47.603,0,90.386-29.048,107.949-73.292l68.641-172.922h-63.089C383.291,125.802,371.645,133.732,366.895,145.795z"/>
<path style="fill:#8C8C8C;" d="M431.131,125.802L362.49,298.724c-17.563,44.244-60.346,73.292-107.949,73.292h28.215
	c47.603,0,90.386-29.048,107.949-73.292l68.641-172.922L431.131,125.802L431.131,125.802z"/>
<g>
</g>
<g>
</g>
<g>
</g>
<g>
</g>
<g>
</g>
<g>
</g>
<g>
</g>
<g>
</g>
<g>
</g>
<g>
</g>
<g>
</g>
<g>
</g>
<g>
</g>
<g>
</g>
<g>
</g>
</svg>
