<?xml version="1.0" encoding="iso-8859-1"?>
<!-- Generator: Adobe Illustrator 19.0.0, SVG Export Plug-In . SVG Version: 6.00 Build 0)  -->
<svg version="1.1" id="Capa_1" xmlns="http://www.w3.org/2000/svg" xmlns:xlink="http://www.w3.org/1999/xlink" x="0px" y="0px"
	 viewBox="0 0 480 480" style="enable-background:new 0 0 480 480;" xml:space="preserve">
<g>
	<path style="fill:#6B968B;" d="M40,419.951v-112h216v-176h192v32h-96v112h120v112c0,17.673-14.327,32-32,32H40z"/>
	<rect x="432" y="275.951" style="fill:#F9CD74;" width="40" height="48"/>
	<g>
		<circle style="fill:#C4DEED;" cx="160" cy="419.951" r="48"/>
		<circle style="fill:#C4DEED;" cx="376" cy="419.951" r="48"/>
		<polygon style="fill:#C4DEED;" points="448,275.951 352,275.951 352,163.951 432,163.951 		"/>
	</g>
	<path style="fill:#608778;" d="M256,131.951v-56l32,3.552l32,3.56l40.248,4.472c22.633,2.512,39.756,21.644,39.752,44.416H256z"/>
	<path style="fill:#F9CD74;" d="M288,51.951h32l0,0v104c0,8.837-7.163,16-16,16l0,0c-8.837,0-16-7.163-16-16V51.951L288,51.951z"/>
</g>
<g>
	<g>
		<path style="fill:#294F61;" d="M40,395.951c-4.418,0-8-3.582-8-8v-80c0-4.418,3.582-8,8-8h208v-168c0-4.418,3.582-8,8-8h32
			c4.418,0,8,3.582,8,8c0,4.418-3.582,8-8,8h-24v168c0,4.418-3.582,8-8,8H48v72C48,392.369,44.418,395.951,40,395.951z"/>
		<path style="fill:#294F61;" d="M440,427.951h-16c-4.418,0-8-3.582-8-8s3.582-8,8-8h16c13.255,0,24-10.745,24-24v-104H352
			c-4.418,0-8-3.582-8-8v-56c0-4.418,3.582-8,8-8s8,3.582,8,8v48h112c4.418,0,8,3.582,8,8v112
			C479.974,410.031,462.08,427.924,440,427.951z"/>
		<path style="fill:#294F61;" d="M472,331.951h-40c-4.418,0-8-3.582-8-8v-48c0-4.418,3.582-8,8-8s8,3.582,8,8v40h32
			c4.418,0,8,3.582,8,8S476.418,331.951,472,331.951z"/>
		<path style="fill:#294F61;" d="M448,283.951c-3.977-0.003-7.347-2.928-7.912-6.864l-16-112c-0.627-4.374,2.41-8.429,6.784-9.056
			s8.429,2.41,9.056,6.784l16,112c0.627,4.374-2.409,8.428-6.783,9.055C448.766,283.924,448.383,283.951,448,283.951z"/>
	</g>
	<g>
		<path style="fill:#C4DEED;" d="M392,315.951h-8c-4.418,0-8-3.582-8-8s3.582-8,8-8h8c4.418,0,8,3.582,8,8
			S396.418,315.951,392,315.951z"/>
		<path style="fill:#C4DEED;" d="M288,379.951h-8c-4.418,0-8-3.582-8-8s3.582-8,8-8h8c4.418,0,8,3.582,8,8
			S292.418,379.951,288,379.951z"/>
		<path style="fill:#C4DEED;" d="M80,379.951h-8c-4.418,0-8-3.582-8-8s3.582-8,8-8h8c4.418,0,8,3.582,8,8S84.418,379.951,80,379.951
			z"/>
		<path style="fill:#C4DEED;" d="M256,347.951H112c-4.418,0-8-3.582-8-8s3.582-8,8-8h144c4.418,0,8,3.582,8,8
			S260.418,347.951,256,347.951z"/>
	</g>
	<g>
		<path style="fill:#294F61;" d="M304,179.951c-13.255,0-24-10.745-24-24v-104c0-4.418,3.582-8,8-8h32c4.418,0,8,3.582,8,8v104
			C328,169.206,317.255,179.951,304,179.951z M296,59.951v96c0,4.418,3.582,8,8,8s8-3.582,8-8v-96H296z"/>
		<path style="fill:#294F61;" d="M304,59.951c-4.418,0-8-3.582-8-8V23.263l-5.656-5.656c-3.07-3.178-2.982-8.242,0.196-11.312
			c3.1-2.994,8.016-2.994,11.116,0l8,8c1.5,1.5,2.344,3.534,2.344,5.656v32C312,56.369,308.418,59.951,304,59.951z"/>
		<path style="fill:#294F61;" d="M352,195.951c-4.418,0-8-3.582-8-8v-24c0-4.418,3.582-8,8-8h88v-16H320c-4.418,0-8-3.582-8-8
			c0-4.418,3.582-8,8-8h128c4.418,0,8,3.582,8,8v32c0,4.418-3.582,8-8,8h-88v16C360,192.369,356.418,195.951,352,195.951z"/>
		<path style="fill:#294F61;" d="M376,475.951c-27.826-0.035-51.419-20.465-55.432-48H208c-4.418,0-8-3.582-8-8s3.582-8,8-8h120
			c4.418,0,8,3.582,8,8c0,22.091,17.909,40,40,40s40-17.909,40-40s-17.909-40-40-40h-56c-4.418,0-8-3.582-8-8s3.582-8,8-8h56
			c30.928,0,56,25.072,56,56S406.928,475.951,376,475.951z"/>
		<path style="fill:#294F61;" d="M160,475.951c-27.826-0.035-51.419-20.465-55.432-48H8c-4.418,0-8-3.582-8-8v-24
			c0-4.418,3.582-8,8-8s8,3.582,8,8v16h96c4.418,0,8,3.582,8,8c0,22.091,17.909,40,40,40s40-17.909,40-40s-17.909-40-40-40h-48
			c-4.418,0-8-3.582-8-8s3.582-8,8-8h48c30.928,0,56,25.072,56,56S190.928,475.951,160,475.951z"/>
		<path style="fill:#294F61;" d="M376,443.951c-13.255,0-24-10.745-24-24s10.745-24,24-24s24,10.745,24,24
			S389.255,443.951,376,443.951L376,443.951z M376,411.951c-4.418,0-8,3.582-8,8s3.582,8,8,8s8-3.582,8-8
			S380.418,411.951,376,411.951z"/>
		<path style="fill:#294F61;" d="M160,443.951c-13.255,0-24-10.745-24-24s10.745-24,24-24s24,10.745,24,24
			S173.255,443.951,160,443.951L160,443.951z M160,411.951c-4.418,0-8,3.582-8,8s3.582,8,8,8s8-3.582,8-8
			S164.418,411.951,160,411.951z"/>
		<path style="fill:#294F61;" d="M400,139.951c-4.418,0-8-3.582-8-8c0.022-18.704-14.048-34.422-32.64-36.464l-40.24-4.472
			c-4.392-0.486-7.558-4.44-7.072-8.832c0.486-4.392,4.44-7.558,8.832-7.072l40.248,4.472c26.697,2.939,46.899,25.509,46.872,52.368
			C408,136.369,404.418,139.951,400,139.951z"/>
		<path style="fill:#294F61;" d="M256,139.951c-4.418,0-8-3.582-8-8v-56c0-4.418,3.581-8,7.999-8.001
			c0.294,0,0.588,0.016,0.881,0.049l32,3.552c4.392,0.486,7.558,4.44,7.072,8.832c-0.486,4.392-4.44,7.558-8.832,7.072L264,84.887
			v47.064C264,136.369,260.418,139.951,256,139.951z"/>
	</g>
</g>
<g>
</g>
<g>
</g>
<g>
</g>
<g>
</g>
<g>
</g>
<g>
</g>
<g>
</g>
<g>
</g>
<g>
</g>
<g>
</g>
<g>
</g>
<g>
</g>
<g>
</g>
<g>
</g>
<g>
</g>
</svg>
